<svg width="500" height="500" viewBox="0 0 500 500" fill="none" xmlns="http://www.w3.org/2000/svg">
<g clip-path="url(#clip0_2467_6)">
<path fill-rule="evenodd" clip-rule="evenodd" d="M250 500C388.071 500 500 388.071 500 250C500 111.929 388.071 0 250 0C111.929 0 0 111.929 0 250C0 388.071 111.929 500 250 500ZM176 250C176 209.131 209.131 176 250 176C290.869 176 324 209.131 324 250C324 290.869 290.869 324 250 324C209.131 324 176 290.869 176 250ZM250 136C187.04 136 136 187.04 136 250C136 312.96 187.04 364 250 364C312.96 364 364 312.96 364 250C364 187.04 312.96 136 250 136Z" fill="url(#paint0_radial_2467_6)"/>
</g>
<defs>
<radialGradient id="paint0_radial_2467_6" cx="0" cy="0" r="1" gradientUnits="userSpaceOnUse" gradientTransform="translate(250 250) rotate(90) scale(250)">
<stop offset="0.338542" stop-color="#55CD00"/>
<stop offset="1" stop-color="white" stop-opacity="0"/>
</radialGradient>
<clipPath id="clip0_2467_6">
<rect width="500" height="500" fill="white"/>
</clipPath>
</defs>
</svg>
